<svg xmlns="http://www.w3.org/2000/svg" xmlns:xlink="http://www.w3.org/1999/xlink" xmlns:lucid="lucid" width="869.89" height="621"><g transform="translate(-639.5 -119.5)" lucid:page-tab-id="0_0"><path d="M500 0h1000v1000H500z" fill="#fff"/><path d="M788.9 333.33c0 35.6-28.86 64.45-64.46 64.45-35.6 0-64.44-28.85-64.44-64.45s28.85-64.44 64.44-64.44c35.6 0 64.45 28.84 64.45 64.43z" stroke="#3a414a" fill="#cfe4ff"/><use xlink:href="#a" transform="matrix(1,0,0,1,665,273.88888888888886) translate(53.32716049382716 62.40277777777778)"/><path d="M788.9 558.9c0 35.58-28.86 64.43-64.46 64.43-35.6 0-64.44-28.85-64.44-64.44 0-35.6 28.85-64.46 64.44-64.46 35.6 0 64.45 28.86 64.45 64.45z" stroke="#3a414a" fill="#cfe4ff"/><use xlink:href="#b" transform="matrix(1,0,0,1,665,499.44444444444446) translate(53.32716049382716 62.40277777777778)"/><path d="M1138.9 204.44c0 35.6-28.86 64.45-64.46 64.45-35.6 0-64.44-28.86-64.44-64.46 0-35.6 28.85-64.44 64.44-64.44 35.6 0 64.45 28.85 64.45 64.44z" stroke="#3a414a" fill="#cfe4ff"/><use xlink:href="#c" transform="matrix(1,0,0,1,1014.9999999999999,145) translate(53.32716049382716 62.40277777777778)"/><path d="M1138.9 430c0 35.6-28.86 64.44-64.46 64.44-35.6 0-64.44-28.85-64.44-64.44 0-35.6 28.85-64.44 64.44-64.44 35.6 0 64.45 28.85 64.45 64.44z" stroke="#3a414a" fill="#cfe4ff"/><use xlink:href="#d" transform="matrix(1,0,0,1,1014.9999999999999,370.55555555555554) translate(53.32716049382716 62.40277777777778)"/><path d="M1138.9 655.56c0 35.6-28.86 64.44-64.46 64.44-35.6 0-64.44-28.85-64.44-64.44 0-35.6 28.85-64.45 64.44-64.45 35.6 0 64.45 28.86 64.45 64.46z" stroke="#3a414a" fill="#cfe4ff"/><use xlink:href="#e" transform="matrix(1,0,0,1,1014.9999999999999,596.1111111111111) translate(53.32716049382716 62.40277777777778)"/><path d="M1488.9 424.44c0 35.6-28.86 64.45-64.46 64.45-35.6 0-64.44-28.86-64.44-64.46 0-35.6 28.85-64.44 64.44-64.44 35.6 0 64.45 28.85 64.45 64.44z" stroke="#3a414a" fill="#cfe4ff"/><use xlink:href="#f" transform="matrix(1,0,0,1,1365,365) translate(53.32716049382716 62.40277777777778)"/><path d="M894.52 273.1l-104.45 60.42-.5-.87 104.95-60.7zm109.3-63.23l-99.42 57.5v-1.14l98.93-57.23z" stroke="#3a414a" stroke-width=".05" fill="#3a414a"/><path d="M790.08 333.5l-.7.42v-1.16l.2-.12z" fill="#3a414a"/><path d="M790.12 333.52l-.78.45.02-.63v-.6l.23-.13zm-.7-.75v.57l-.03.54.65-.38-.48-.82z" stroke="#3a414a" stroke-width=".05" fill="#3a414a"/><path d="M1008.68 206.5l-7.35 13.06-7.65-13.22z" fill="#3a414a"/><path d="M1009.53 206l-8.2 14.57-8.52-14.74zm-8.2 12.55l6.5-11.57-13.28-.13z" stroke="#3a414a" stroke-width=".05" fill="#3a414a"/><use xlink:href="#g" transform="matrix(1,0,0,1,894.5203504258507,258.9974416445392) translate(0 14.222222222222223)"/><path d="M1004.6 414.13l-.36.94-50.56-19.1v-1.08zm-60.8-22.97v1.07L789.7 333.98l.35-.94z" stroke="#3a414a" stroke-width=".05" fill="#3a414a"/><path d="M1009.92 416.68l-14.77 2.58 5.4-14.28z" fill="#3a414a"/><path d="M1010.84 417.03l-16.47 2.87 6.02-15.92zm-14.92 1.6l13.1-2.3-8.3-10.36z" stroke="#3a414a" stroke-width=".05" fill="#3a414a"/><path d="M790.04 333.05l-.35.93-.33-.12.02-.52-.02-.54z" fill="#3a414a"/><path d="M790.08 333.03l-.37 1-.36-.15.02-.54v-.58zm-.67.3v.5l.28.12.33-.9-.6-.22z" stroke="#3a414a" stroke-width=".05" fill="#3a414a"/><use xlink:href="#h" transform="matrix(1,0,0,1,943.807623264661,382.8940963764505) translate(0 14.222222222222223)"/><path d="M954.47 472.05l-164.4 87.05-.47-.9 164.87-87.28zm50.27-26.62l-40.4 21.4v-1.14l39.93-21.15z" stroke="#3a414a" stroke-width=".05" fill="#3a414a"/><path d="M790.08 559.1l-.7.37v-1.14l.23-.12z" fill="#3a414a"/><path d="M790.1 559.1l-.76.4.02-.6v-.6l.26-.13zm-.7-.76v1.08l.64-.34-.44-.84z" stroke="#3a414a" stroke-width=".05" fill="#3a414a"/><path d="M1009.7 442.24l-7.83 12.8-7.14-13.5z" fill="#3a414a"/><path d="M1010.58 441.78l-8.74 14.25-7.96-15.04zm-8.67 12.24l6.95-11.32-13.27-.63z" stroke="#3a414a" stroke-width=".05" fill="#3a414a"/><use xlink:href="#h" transform="matrix(1,0,0,1,954.4720016951702,458.20282941221495) translate(0 14.222222222222223)"/><path d="M1003.4 652.33l-.4.92-98.62-43.3v-1.1zM894.5 604.5v1.1l-104.85-46.05.4-.92z" stroke="#3a414a" stroke-width=".05" fill="#3a414a"/><path d="M1008.6 655.16l-14.9 1.8 6.15-13.98z" fill="#3a414a"/><path d="M1009.5 655.56l-16.6 2 6.84-15.6zm-14.98.8l13.18-1.6-7.75-10.78z" stroke="#3a414a" stroke-width=".05" fill="#3a414a"/><path d="M790.06 558.64l-.4.9-.3-.1.03-.54-.02-.56z" fill="#3a414a"/><path d="M790.1 558.62l-.43.97-.33-.16.02-.54v-.6zm-.7.28v.5l.25.12.38-.87-.62-.27z" stroke="#3a414a" stroke-width=".05" fill="#3a414a"/><use xlink:href="#h" transform="matrix(1,0,0,1,894.5061728993118,596.5555555555555) translate(0 14.222222222222223)"/><path d="M936.68 336.35l-146.6 222.4-.83-.55 147.43-223.67zm71.75-108.83l-61.87 93.85v-1.82l61.03-92.58z" stroke="#3a414a" stroke-width=".05" fill="#3a414a"/><path d="M1010.52 237.3l-12.75-8.4 13.48-6.58z" fill="#3a414a"/><path d="M1010.98 238.2l-14.22-9.36 15.03-7.34zm-12.2-9.23l11.28 7.44.65-13.25z" stroke="#3a414a" stroke-width=".05" fill="#3a414a"/><path d="M790.1 558.74l-.75 1.1.04-.94-.02-.63z" fill="#3a414a"/><path d="M790.12 558.73l-.8 1.2.04-1.03v-.68zm-.7.17l-.04.87.67-1.03-.64-.42z" stroke="#3a414a" stroke-width=".05" fill="#3a414a"/><use xlink:href="#i" transform="matrix(1,0,0,1,936.6849200317534,317.28454092343554) translate(0 14.222222222222223)"/><path d="M1008.27 632.27l-.8.6-64.8-88.74v-1.7zM932.8 528.9v1.7L789.28 334.03l.8-.6z" stroke="#3a414a" stroke-width=".05" fill="#3a414a"/><path d="M1011.34 637.32l-13.78-5.92 12.33-9z" fill="#3a414a"/><path d="M1011.92 638.1l-15.36-6.6 13.75-10.03zm-13.36-6.82l12.2 5.25-1.28-13.22z" stroke="#3a414a" stroke-width=".05" fill="#3a414a"/><path d="M790.1 333.45l-.74.54.03-.66-.02-.87z" fill="#3a414a"/><path d="M790.13 333.46l-.8.58.03-.7v-.94zm-.72-.12v.6l.66-.5-.65-.9z" stroke="#3a414a" stroke-width=".05" fill="#3a414a"/><use xlink:href="#j" transform="matrix(1,0,0,1,932.7999715448494,525.8482811028299) translate(0 14.222222222222223)"/><path d="M1356.1 406.76l-.68.73-83.98-78.67v-1.37zm-94.53-88.55v1.38L1139.4 205.15l.7-.73z" stroke="#3a414a" stroke-width=".05" fill="#3a414a"/><path d="M1140.1 204.43l-.68.73-.03-.7-.02-.7z" fill="#3a414a"/><path d="M1140.14 204.43l-.74.8-.04-.78v-.75zm-.73.02l.04.65.63-.67-.66-.62z" stroke="#3a414a" stroke-width=".05" fill="#3a414a"/><path d="M1360.06 411.15l-14.64-3.25 10.43-11.15z" fill="#3a414a"/><path d="M1360.78 411.82l-16.33-3.62 11.64-12.43zm-14.4-4.22l12.96 2.88-3.72-12.75z" stroke="#3a414a" stroke-width=".05" fill="#3a414a"/><use xlink:href="#k" transform="matrix(1,0,0,1,1261.5670146746274,312.85170228199894) translate(0 14.222222222222223)"/><path d="M1264 427.36l-124.1 3.13-.02-1 124.13-3.15zm88.64-2.24l-78.75 2v-1l78.72-2z" stroke="#3a414a" stroke-width=".05" fill="#3a414a"/><path d="M1139.9 430.5h-.53l.02-.5-.02-.5h.5z" fill="#3a414a"/><path d="M1139.94 430.5l-.6.03.02-.52v-.52l.55-.02zm-.53-.98v.96l.5-.02-.04-.95z" stroke="#3a414a" stroke-width=".05" fill="#3a414a"/><path d="M1358.52 424.47l-12.72 7.96-.38-15.27z" fill="#3a414a"/><path d="M1359.5 424.44l-14.17 8.88-.43-17.02zm-13.22 7.1l11.26-7.05-11.6-6.48z" stroke="#3a414a" stroke-width=".05" fill="#3a414a"/><use xlink:href="#h" transform="matrix(1,0,0,1,1264.0098390320115,416.0632872526907) translate(0 14.222222222222223)"/><path d="M1259.6 536.06l-119.5 119.5-.7-.7 120.2-120.2zm96.22-96.23l-86.35 86.35v-1.4l85.64-85.66z" stroke="#3a414a" stroke-width=".05" fill="#3a414a"/><path d="M1140.1 655.55l-.74.74.03-.74-.02-.7z" fill="#3a414a"/><path d="M1140.14 655.55l-.8.8.02-.8v-.75zm-.73 0v.68l.67-.68-.66-.64z" stroke="#3a414a" stroke-width=".05" fill="#3a414a"/><path d="M1355.9 449.84l-10.8-10.8 14.53-3.73z" fill="#3a414a"/><path d="M1356.17 450.8l-12.04-12.02 16.2-4.16zm-10.1-11.5l9.57 9.57 3.3-12.86z" stroke="#3a414a" stroke-width=".05" fill="#3a414a"/><use xlink:href="#g" transform="matrix(1,0,0,1,1259.591438168359,519.74809078679) translate(0 14.222222222222223)"/><path d="M1010.5 443.77h-3.18" stroke="#3a414a" fill="none"/><path d="M1011.12 444.27h-.62v-1h.4z" stroke="#3a414a" stroke-width=".05" fill="#3a414a"/><path d="M1007.33 443.77h-.5" stroke="#3a414a" fill="none"/><defs><path fill="#3a414a" d="M27 0v-27h64v-190l-56 39v-29l58-41h29v221h61V0H27" id="l"/><use transform="matrix(0.06172839506172839,0,0,0.06172839506172839,0,0)" xlink:href="#l" id="a"/><path fill="#3a414a" d="M101-251c82-7 93 87 43 132L82-64C71-53 59-42 53-27h129V0H18c2-99 128-94 128-182 0-28-16-43-45-43s-46 15-49 41l-32-3c6-41 34-60 81-64" id="m"/><use transform="matrix(0.06172839506172839,0,0,0.06172839506172839,0,0)" xlink:href="#m" id="b"/><path fill="#3a414a" d="M126-127c33 6 58 20 58 59 0 88-139 92-164 29-3-8-5-16-6-25l32-3c6 27 21 44 54 44 32 0 52-15 52-46 0-38-36-46-79-43v-28c39 1 72-4 72-42 0-27-17-43-46-43-28 0-47 15-49 41l-32-3c6-42 35-63 81-64 48-1 79 21 79 65 0 36-21 52-52 59" id="n"/><use transform="matrix(0.06172839506172839,0,0,0.06172839506172839,0,0)" xlink:href="#n" id="c"/><path fill="#3a414a" d="M155-56V0h-30v-56H8v-25l114-167h33v167h35v25h-35zm-30-156c-27 46-58 90-88 131h88v-131" id="o"/><use transform="matrix(0.06172839506172839,0,0,0.06172839506172839,0,0)" xlink:href="#o" id="d"/><path fill="#3a414a" d="M54-142c48-35 137-8 131 61C196 18 31 33 14-55l32-4c7 23 22 37 52 37 35-1 51-22 54-58 4-55-73-65-99-34H22l8-134h141v27H59" id="p"/><use transform="matrix(0.06172839506172839,0,0,0.06172839506172839,0,0)" xlink:href="#p" id="e"/><path fill="#3a414a" d="M110-160c48 1 74 30 74 79 0 53-28 85-80 85-65 0-83-55-86-122-5-90 50-162 133-122 14 7 22 21 27 39l-31 6c-5-40-67-38-82-6-9 19-15 44-15 74 11-20 30-34 60-33zm-7 138c34 0 49-23 49-58s-16-56-50-56c-29 0-50 16-49 49 1 36 15 65 50 65" id="q"/><use transform="matrix(0.06172839506172839,0,0,0.06172839506172839,0,0)" xlink:href="#q" id="f"/><path fill="#333" d="M23 0v-37h61v-169l-59 37v-38l62-41h46v211h57V0H23" id="r"/><use transform="matrix(0.04938271604938272,0,0,0.04938271604938272,0,0)" xlink:href="#r" id="g"/><path fill="#333" d="M182-182c0 78-84 86-111 141h115V0H12c-6-101 99-100 120-180 1-22-12-31-33-32-23 0-32 14-35 34l-49-3c5-45 32-70 84-70 51 0 83 22 83 69" id="s"/><use transform="matrix(0.04938271604938272,0,0,0.04938271604938272,0,0)" xlink:href="#s" id="h"/><path fill="#333" d="M165-50V0h-47v-50H5v-38l105-160h55v161h33v37h-33zm-47-37l2-116L46-87h72" id="t"/><use transform="matrix(0.04938271604938272,0,0,0.04938271604938272,0,0)" xlink:href="#t" id="i"/><path fill="#333" d="M128-127c34 4 56 21 59 58 7 91-148 94-172 28-4-9-6-17-7-26l51-5c1 24 16 35 40 36 23 0 39-12 38-36-1-31-31-36-65-34v-40c32 2 59-3 59-33 0-20-13-33-34-33s-33 13-35 32l-50-3c6-44 37-68 86-68 50 0 83 20 83 66 0 35-22 52-53 58" id="u"/><use transform="matrix(0.04938271604938272,0,0,0.04938271604938272,0,0)" xlink:href="#u" id="j"/><path fill="#333" d="M139-81c0-46-55-55-73-27H18l9-140h149v37H72l-4 63c44-38 133-4 122 66C201 21 21 35 11-62l49-4c5 18 15 30 39 30 26 0 40-18 40-45" id="v"/><use transform="matrix(0.04938271604938272,0,0,0.04938271604938272,0,0)" xlink:href="#v" id="k"/></defs></g></svg>