<svg xmlns="http://www.w3.org/2000/svg" xmlns:xlink="http://www.w3.org/1999/xlink" xmlns:lucid="lucid" width="441" height="401"><g transform="translate(-639.5 -119.5)" lucid:page-tab-id="0_0"><path d="M500 0h1000v500H500z" fill="#fff"/><path d="M740 260c0 22.1-17.9 40-40 40s-40-17.9-40-40 17.9-40 40-40 40 17.9 40 40z" stroke="#3a414a" fill="#cfe4ff"/><use xlink:href="#a" transform="matrix(1,0,0,1,665,225) translate(28.82716049382716 39.65277777777778)"/><path d="M740 400c0 22.1-17.9 40-40 40s-40-17.9-40-40 17.9-40 40-40 40 17.9 40 40z" stroke="#3a414a" fill="#cfe4ff"/><use xlink:href="#b" transform="matrix(1,0,0,1,665,365) translate(28.82716049382716 39.65277777777778)"/><path d="M900 180c0 22.1-17.9 40-40 40s-40-17.9-40-40 17.9-40 40-40 40 17.9 40 40z" stroke="#3a414a" fill="#cfe4ff"/><use xlink:href="#c" transform="matrix(1,0,0,1,825,145) translate(28.82716049382716 39.65277777777778)"/><path d="M900 320c0 22.1-17.9 40-40 40s-40-17.9-40-40 17.9-40 40-40 40 17.9 40 40z" stroke="#3a414a" fill="#cfe4ff"/><use xlink:href="#d" transform="matrix(1,0,0,1,825,285) translate(28.82716049382716 39.65277777777778)"/><path d="M900 460c0 22.1-17.9 40-40 40s-40-17.9-40-40 17.9-40 40-40 40 17.9 40 40z" stroke="#3a414a" fill="#cfe4ff"/><use xlink:href="#e" transform="matrix(1,0,0,1,825,425) translate(28.82716049382716 39.65277777777778)"/><path d="M1060 320c0 22.1-17.9 40-40 40s-40-17.9-40-40 17.9-40 40-40 40 17.9 40 40z" stroke="#3a414a" fill="#cfe4ff"/><use xlink:href="#f" transform="matrix(1,0,0,1,985,285) translate(28.82716049382716 39.65277777777778)"/><path d="M740.85 259.65l78.33-78.33" stroke="#3a414a" fill="none"/><path d="M741.22 260l-.77.75.05-.74-.02-.68.03-.04zM819.56 181.65l-.03.03-.7-.7.68-.7z" stroke="#3a414a" stroke-width=".05" fill="#3a414a"/><path d="M819.1 319.7l-78.2-59.4" stroke="#3a414a" fill="none"/><path d="M819.54 319.4l-.04.6.02.64-.73-.55.6-.8zM741.2 259.9l-.6.8-.14-.1.04-.6-.02-.64z" stroke="#3a414a" stroke-width=".05" fill="#3a414a"/><path d="M740.85 399.65l78.33-78.33" stroke="#3a414a" fill="none"/><path d="M741.22 400l-.77.75.05-.74-.02-.68.03-.04zM819.56 321.65l-.03.03-.7-.7.68-.7z" stroke="#3a414a" stroke-width=".05" fill="#3a414a"/><path d="M819.1 459.7l-78.2-59.4" stroke="#3a414a" fill="none"/><path d="M819.54 459.4l-.04.6.02.64-.73-.55.6-.8zM741.2 399.9l-.6.8-.14-.1.04-.6-.02-.64z" stroke="#3a414a" stroke-width=".05" fill="#3a414a"/><path d="M819.33 180.47l-78.66 219.06" stroke="#3a414a" fill="none"/><path d="M819.5 180l.02.55-.66-.24.75-2.1zM741.14 399.7l-.75 2.1.1-1.8-.02-.55z" stroke="#3a414a" stroke-width=".05" fill="#3a414a"/><path d="M819.32 459.54l-78.64-199.08" stroke="#3a414a" fill="none"/><path d="M819.5 460l.05 1.5-.7-1.8.68-.26zM741.15 260.3l-.68.26.03-.55-.05-1.5z" stroke="#3a414a" stroke-width=".05" fill="#3a414a"/><path d="M900.75 180.44l78.5 139.13" stroke="#3a414a" fill="none"/><path d="M901.2 180.2l-.74.4.04-.6-.04-1.1zM979.5 320l.04 1.08-.73-1.28.74-.4z" stroke="#3a414a" stroke-width=".05" fill="#3a414a"/><path d="M901 320h78" stroke="#3a414a" fill="none"/><path d="M901 320.5h-.53l.03-.5-.02-.5h.53zM979.5 320l.02.5H979v-1h.53z" stroke="#3a414a" stroke-width=".05" fill="#3a414a"/><path d="M900.75 459.56l78.5-139.13" stroke="#3a414a" fill="none"/><path d="M901.2 459.8l-.77 1.34.07-1.13-.02-.6zM979.5 320l.02.6-.7-.4.75-1.34z" stroke="#3a414a" stroke-width=".05" fill="#3a414a"/><defs><path fill="#3a414a" d="M27 0v-27h64v-190l-56 39v-29l58-41h29v221h61V0H27" id="g"/><use transform="matrix(0.06172839506172839,0,0,0.06172839506172839,0,0)" xlink:href="#g" id="a"/><path fill="#3a414a" d="M101-251c82-7 93 87 43 132L82-64C71-53 59-42 53-27h129V0H18c2-99 128-94 128-182 0-28-16-43-45-43s-46 15-49 41l-32-3c6-41 34-60 81-64" id="h"/><use transform="matrix(0.06172839506172839,0,0,0.06172839506172839,0,0)" xlink:href="#h" id="b"/><path fill="#3a414a" d="M126-127c33 6 58 20 58 59 0 88-139 92-164 29-3-8-5-16-6-25l32-3c6 27 21 44 54 44 32 0 52-15 52-46 0-38-36-46-79-43v-28c39 1 72-4 72-42 0-27-17-43-46-43-28 0-47 15-49 41l-32-3c6-42 35-63 81-64 48-1 79 21 79 65 0 36-21 52-52 59" id="i"/><use transform="matrix(0.06172839506172839,0,0,0.06172839506172839,0,0)" xlink:href="#i" id="c"/><path fill="#3a414a" d="M155-56V0h-30v-56H8v-25l114-167h33v167h35v25h-35zm-30-156c-27 46-58 90-88 131h88v-131" id="j"/><use transform="matrix(0.06172839506172839,0,0,0.06172839506172839,0,0)" xlink:href="#j" id="d"/><path fill="#3a414a" d="M54-142c48-35 137-8 131 61C196 18 31 33 14-55l32-4c7 23 22 37 52 37 35-1 51-22 54-58 4-55-73-65-99-34H22l8-134h141v27H59" id="k"/><use transform="matrix(0.06172839506172839,0,0,0.06172839506172839,0,0)" xlink:href="#k" id="e"/><path fill="#3a414a" d="M110-160c48 1 74 30 74 79 0 53-28 85-80 85-65 0-83-55-86-122-5-90 50-162 133-122 14 7 22 21 27 39l-31 6c-5-40-67-38-82-6-9 19-15 44-15 74 11-20 30-34 60-33zm-7 138c34 0 49-23 49-58s-16-56-50-56c-29 0-50 16-49 49 1 36 15 65 50 65" id="l"/><use transform="matrix(0.06172839506172839,0,0,0.06172839506172839,0,0)" xlink:href="#l" id="f"/></defs></g></svg>