<svg xmlns="http://www.w3.org/2000/svg" xmlns:xlink="http://www.w3.org/1999/xlink" xmlns:lucid="lucid" width="441" height="401"><g transform="translate(-639.5 -119.5)" lucid:page-tab-id="0_0"><path d="M500 0h1000v500H500z" fill="#fff"/><path d="M740 260c0 22.1-17.9 40-40 40s-40-17.9-40-40 17.9-40 40-40 40 17.9 40 40z" stroke="#3a414a" fill="#cfe4ff"/><use xlink:href="#a" transform="matrix(1,0,0,1,665,225) translate(28.82716049382716 39.65277777777778)"/><path d="M740 400c0 22.1-17.9 40-40 40s-40-17.9-40-40 17.9-40 40-40 40 17.9 40 40z" stroke="#3a414a" fill="#cfe4ff"/><use xlink:href="#b" transform="matrix(1,0,0,1,665,365) translate(28.82716049382716 39.65277777777778)"/><path d="M900 180c0 22.1-17.9 40-40 40s-40-17.9-40-40 17.9-40 40-40 40 17.9 40 40z" stroke="#3a414a" fill="#cfe4ff"/><use xlink:href="#c" transform="matrix(1,0,0,1,825,145) translate(28.82716049382716 39.65277777777778)"/><path d="M900 320c0 22.1-17.9 40-40 40s-40-17.9-40-40 17.9-40 40-40 40 17.9 40 40z" stroke="#3a414a" fill="#cfe4ff"/><use xlink:href="#d" transform="matrix(1,0,0,1,825,285) translate(28.82716049382716 39.65277777777778)"/><path d="M900 460c0 22.1-17.9 40-40 40s-40-17.9-40-40 17.9-40 40-40 40 17.9 40 40z" stroke="#3a414a" fill="#cfe4ff"/><use xlink:href="#e" transform="matrix(1,0,0,1,825,425) translate(28.82716049382716 39.65277777777778)"/><path d="M1060 320c0 22.1-17.9 40-40 40s-40-17.9-40-40 17.9-40 40-40 40 17.9 40 40z" stroke="#3a414a" fill="#cfe4ff"/><use xlink:href="#f" transform="matrix(1,0,0,1,985,285) translate(28.82716049382716 39.65277777777778)"/><path d="M775.08 226.13L741.2 260l-.7-.7 34.58-34.6zm44.45-44.46l-34.57 34.58v-1.4l33.87-33.88z" stroke="#3a414a" stroke-width=".05" fill="#3a414a"/><path d="M741.22 260l-.77.75.05-.74-.02-.68z" fill="#3a414a"/><path d="M741.25 260l-.83.82.06-.8-.03-.76zm-.72 0l-.05.7.7-.7-.68-.63z" stroke="#3a414a" stroke-width=".05" fill="#3a414a"/><path d="M819.56 181.65l-.74-.67.7-.7z" fill="#3a414a"/><path d="M819.6 181.7l-.82-.72.75-.75zm-.75-.72l.68.6-.04-1.24z" stroke="#3a414a" stroke-width=".05" fill="#3a414a"/><use xlink:href="#g" transform="matrix(1,0,0,1,775.0787987162183,209.81657487202114) translate(0 14.222222222222223)"/><path d="M819.4 319.3l-.6.8-16.5-12.55v-1.25zm-27-20.5v1.25l-51.8-39.35.6-.8z" stroke="#3a414a" stroke-width=".05" fill="#3a414a"/><path d="M819.54 319.4l-.04.6.02.64-.73-.55.6-.8z" fill="#3a414a"/><path d="M819.56 319.4l-.04.6.03.7-.8-.6.64-.84zm-.74.68l.68.5-.03-.6.04-.57-.1-.07z" stroke="#3a414a" stroke-width=".05" fill="#3a414a"/><path d="M741.2 259.9l-.6.8-.14-.1.04-.6-.02-.64z" fill="#3a414a"/><path d="M741.25 259.9l-.64.84-.16-.13.04-.6-.03-.7zm-.72.1l-.04.6.1.07.58-.75-.68-.5z" stroke="#3a414a" stroke-width=".05" fill="#3a414a"/><use xlink:href="#h" transform="matrix(1,0,0,1,792.4093989074447,292.508883315522) translate(0 14.222222222222223)"/><path d="M796.3 344.9L741.2 400l-.7-.7 55.8-55.82zm23.23-23.23l-13.34 13.35v-1.4l12.63-12.65z" stroke="#3a414a" stroke-width=".05" fill="#3a414a"/><path d="M741.22 400l-.77.75.05-.74-.02-.68z" fill="#3a414a"/><path d="M741.25 400l-.83.82.06-.8-.03-.76zm-.72 0l-.05.7.7-.7-.68-.63z" stroke="#3a414a" stroke-width=".05" fill="#3a414a"/><path d="M819.56 321.65l-.74-.67.7-.7z" fill="#3a414a"/><path d="M819.6 321.7l-.82-.72.75-.75zm-.75-.72l.68.6-.04-1.24z" stroke="#3a414a" stroke-width=".05" fill="#3a414a"/><use xlink:href="#h" transform="matrix(1,0,0,1,796.3118843249839,328.5834892632555) translate(0 14.222222222222223)"/><path d="M819.4 459.3l-.6.8-33.86-25.72v-1.26zm-44.34-33.68v1.26L740.6 400.7l.6-.8z" stroke="#3a414a" stroke-width=".05" fill="#3a414a"/><path d="M819.54 459.4l-.04.6.02.64-.73-.55.6-.8z" fill="#3a414a"/><path d="M819.56 459.4l-.04.6.03.7-.8-.6.64-.84zm-.74.68l.68.5-.03-.6.04-.57-.1-.07z" stroke="#3a414a" stroke-width=".05" fill="#3a414a"/><path d="M741.2 399.9l-.6.8-.14-.1.04-.6-.02-.64z" fill="#3a414a"/><path d="M741.25 399.9l-.64.84-.16-.13.04-.6-.03-.7zm-.72.1l-.04.6.1.07.58-.75-.68-.5z" stroke="#3a414a" stroke-width=".05" fill="#3a414a"/><use xlink:href="#h" transform="matrix(1,0,0,1,775.0617283950618,419.3333333333333) translate(0 14.222222222222223)"/><path d="M741.14 399.7l-.94-.34 50-139.28h1.08zm78.66-219.06l-20.86 58.1h-1.07l21-58.44z" stroke="#3a414a" stroke-width=".05" fill="#3a414a"/><path d="M819.5 180l.02.55-.66-.24.75-2.1z" fill="#3a414a"/><path d="M819.52 180l.02.6-.72-.27.83-2.3zm-.63.3l.6.22-.03-.53.1-1.6z" stroke="#3a414a" stroke-width=".05" fill="#3a414a"/><path d="M741.14 399.7l-.75 2.1.1-1.8-.02-.55z" fill="#3a414a"/><path d="M741.18 399.67l-.83 2.3.13-1.96-.02-.6zm-.65.34l-.1 1.6.68-1.9-.6-.22z" stroke="#3a414a" stroke-width=".05" fill="#3a414a"/><use xlink:href="#i" transform="matrix(1,0,0,1,789.636740060557,238.74437279481714) translate(0 14.222222222222223)"/><path d="M819.78 459.35l-.93.37-22-55.72h1.07zm-30.3-76.7h-1.07l-48.18-122 .93-.37z" stroke="#3a414a" stroke-width=".05" fill="#3a414a"/><path d="M819.5 460l.05 1.5-.7-1.8.68-.26z" fill="#3a414a"/><path d="M819.52 460l.06 1.64-.77-1.95.76-.3zm-.64-.28l.64 1.63-.05-1.36.04-.53z" stroke="#3a414a" stroke-width=".05" fill="#3a414a"/><path d="M741.15 260.3l-.68.26.03-.55-.05-1.5z" fill="#3a414a"/><path d="M741.2 260.3l-.76.3.04-.6-.06-1.64zm-.67-.3l-.04.53.62-.25-.64-1.63z" stroke="#3a414a" stroke-width=".05" fill="#3a414a"/><use xlink:href="#j" transform="matrix(1,0,0,1,788.2268805582511,382.66309562531836) translate(0 14.222222222222223)"/><path d="M979.7 319.32l-.88.5-28.02-49.67v-2.03zm-38.78-68.7v2.03l-40.6-71.97.86-.5z" stroke="#3a414a" stroke-width=".05" fill="#3a414a"/><path d="M901.2 180.2l-.74.4.04-.6-.04-1.1z" fill="#3a414a"/><path d="M901.22 180.2l-.8.45.06-.64-.05-1.2zm-.7-.2l-.03.57.65-.38-.66-1.18z" stroke="#3a414a" stroke-width=".05" fill="#3a414a"/><path d="M979.5 320l.04 1.08-.73-1.28.74-.4z" fill="#3a414a"/><path d="M979.52 320l.05 1.2-.8-1.4.8-.45zm-.67-.2l.66 1.18-.03-1 .04-.55z" stroke="#3a414a" stroke-width=".05" fill="#3a414a"/><use xlink:href="#k" transform="matrix(1,0,0,1,940.9222691655256,249.71918378554014) translate(0 14.222222222222223)"/><path d="M942.06 320.5H901v-1h41.06zm36.94 0h-27.06v-1H979z" stroke="#3a414a" stroke-width=".05" fill="#3a414a"/><path d="M901 320.5h-.53l.03-.5-.02-.5h.53z" fill="#3a414a"/><path d="M901.04 320.52h-.6l.04-.5-.02-.54h.58zm-.53-1l.03.5-.03.46h.5v-.96z" stroke="#3a414a" stroke-width=".05" fill="#3a414a"/><path d="M979.5 320l.02.5H979v-1h.53z" fill="#3a414a"/><path d="M979.52 320l.02.52h-.58v-1.04h.6zm-.5-.48v.96h.47l-.03-.5.03-.46z" stroke="#3a414a" stroke-width=".05" fill="#3a414a"/><use xlink:href="#h" transform="matrix(1,0,0,1,942.0617283950618,309.3333333333333) translate(0 14.222222222222223)"/><path d="M940.3 390.47L901.2 459.8l-.87-.48 40-70.88zm39.4-69.8l-29.52 52.3v-2.04l28.64-50.74z" stroke="#3a414a" stroke-width=".05" fill="#3a414a"/><path d="M901.2 459.8l-.77 1.34.07-1.13-.02-.6z" fill="#3a414a"/><path d="M901.22 459.8l-.82 1.45.08-1.24-.03-.64zm-.7.2l-.06 1.04.7-1.23-.65-.36z" stroke="#3a414a" stroke-width=".05" fill="#3a414a"/><path d="M979.5 320l.02.6-.7-.4.75-1.34z" fill="#3a414a"/><path d="M979.52 320l.03.64-.77-.43.82-1.45zm-.67.2l.64.36-.03-.57.07-1.04z" stroke="#3a414a" stroke-width=".05" fill="#3a414a"/><use xlink:href="#g" transform="matrix(1,0,0,1,940.3077811634375,370.0364575584337) translate(0 14.222222222222223)"/><defs><path fill="#3a414a" d="M27 0v-27h64v-190l-56 39v-29l58-41h29v221h61V0H27" id="l"/><use transform="matrix(0.06172839506172839,0,0,0.06172839506172839,0,0)" xlink:href="#l" id="a"/><path fill="#3a414a" d="M101-251c82-7 93 87 43 132L82-64C71-53 59-42 53-27h129V0H18c2-99 128-94 128-182 0-28-16-43-45-43s-46 15-49 41l-32-3c6-41 34-60 81-64" id="m"/><use transform="matrix(0.06172839506172839,0,0,0.06172839506172839,0,0)" xlink:href="#m" id="b"/><path fill="#3a414a" d="M126-127c33 6 58 20 58 59 0 88-139 92-164 29-3-8-5-16-6-25l32-3c6 27 21 44 54 44 32 0 52-15 52-46 0-38-36-46-79-43v-28c39 1 72-4 72-42 0-27-17-43-46-43-28 0-47 15-49 41l-32-3c6-42 35-63 81-64 48-1 79 21 79 65 0 36-21 52-52 59" id="n"/><use transform="matrix(0.06172839506172839,0,0,0.06172839506172839,0,0)" xlink:href="#n" id="c"/><path fill="#3a414a" d="M155-56V0h-30v-56H8v-25l114-167h33v167h35v25h-35zm-30-156c-27 46-58 90-88 131h88v-131" id="o"/><use transform="matrix(0.06172839506172839,0,0,0.06172839506172839,0,0)" xlink:href="#o" id="d"/><path fill="#3a414a" d="M54-142c48-35 137-8 131 61C196 18 31 33 14-55l32-4c7 23 22 37 52 37 35-1 51-22 54-58 4-55-73-65-99-34H22l8-134h141v27H59" id="p"/><use transform="matrix(0.06172839506172839,0,0,0.06172839506172839,0,0)" xlink:href="#p" id="e"/><path fill="#3a414a" d="M110-160c48 1 74 30 74 79 0 53-28 85-80 85-65 0-83-55-86-122-5-90 50-162 133-122 14 7 22 21 27 39l-31 6c-5-40-67-38-82-6-9 19-15 44-15 74 11-20 30-34 60-33zm-7 138c34 0 49-23 49-58s-16-56-50-56c-29 0-50 16-49 49 1 36 15 65 50 65" id="q"/><use transform="matrix(0.06172839506172839,0,0,0.06172839506172839,0,0)" xlink:href="#q" id="f"/><path fill="#333" d="M23 0v-37h61v-169l-59 37v-38l62-41h46v211h57V0H23" id="r"/><use transform="matrix(0.04938271604938272,0,0,0.04938271604938272,0,0)" xlink:href="#r" id="g"/><path fill="#333" d="M182-182c0 78-84 86-111 141h115V0H12c-6-101 99-100 120-180 1-22-12-31-33-32-23 0-32 14-35 34l-49-3c5-45 32-70 84-70 51 0 83 22 83 69" id="s"/><use transform="matrix(0.04938271604938272,0,0,0.04938271604938272,0,0)" xlink:href="#s" id="h"/><path fill="#333" d="M165-50V0h-47v-50H5v-38l105-160h55v161h33v37h-33zm-47-37l2-116L46-87h72" id="t"/><use transform="matrix(0.04938271604938272,0,0,0.04938271604938272,0,0)" xlink:href="#t" id="i"/><path fill="#333" d="M128-127c34 4 56 21 59 58 7 91-148 94-172 28-4-9-6-17-7-26l51-5c1 24 16 35 40 36 23 0 39-12 38-36-1-31-31-36-65-34v-40c32 2 59-3 59-33 0-20-13-33-34-33s-33 13-35 32l-50-3c6-44 37-68 86-68 50 0 83 20 83 66 0 35-22 52-53 58" id="u"/><use transform="matrix(0.04938271604938272,0,0,0.04938271604938272,0,0)" xlink:href="#u" id="j"/><path fill="#333" d="M139-81c0-46-55-55-73-27H18l9-140h149v37H72l-4 63c44-38 133-4 122 66C201 21 21 35 11-62l49-4c5 18 15 30 39 30 26 0 40-18 40-45" id="v"/><use transform="matrix(0.04938271604938272,0,0,0.04938271604938272,0,0)" xlink:href="#v" id="k"/></defs></g></svg>