<svg xmlns="http://www.w3.org/2000/svg" xmlns:xlink="http://www.w3.org/1999/xlink" xmlns:lucid="lucid" width="901" height="781"><g transform="translate(-623.9444444444445 0.5)" lucid:page-tab-id="0_0"><path d="M500 0h1500v1000H500z" fill="#fff"/><path d="M1344.44 100c0-44.18 35.82-80 80-80 44.2 0 80 35.82 80 80v580c0 44.18-35.8 80-80 80-44.18 0-80-35.82-80-80z" stroke="#3a414a" fill="#e3fae3"/><use xlink:href="#a" transform="matrix(1,0,0,1,1349.4444444444443,25) translate(75.005 14.222222222222221)"/><use xlink:href="#b" transform="matrix(1,0,0,1,1349.4444444444443,25) translate(23.671666666666678 35.55555555555556)"/><use xlink:href="#c" transform="matrix(1,0,0,1,1349.4444444444443,25) translate(81.94327160493827 35.55555555555556)"/><use xlink:href="#d" transform="matrix(1,0,0,1,1349.4444444444443,25) translate(34.06672839506173 56.888888888888886)"/><use xlink:href="#e" transform="matrix(1,0,0,1,1349.4444444444443,25) translate(44.4567901234568 78.22222222222223)"/><path d="M994.44 100c0-44.18 35.82-80 80-80 44.2 0 80 35.82 80 80v580c0 44.18-35.8 80-80 80-44.18 0-80-35.82-80-80z" stroke="#3a414a" fill="#ffdda6"/><use xlink:href="#a" transform="matrix(1,0,0,1,999.4444444444443,25) translate(75.005 14.222222222222221)"/><use xlink:href="#f" transform="matrix(1,0,0,1,999.4444444444443,25) translate(22.239567901234583 35.55555555555556)"/><use xlink:href="#c" transform="matrix(1,0,0,1,999.4444444444443,25) translate(83.37537037037038 35.55555555555556)"/><use xlink:href="#g" transform="matrix(1,0,0,1,999.4444444444443,25) translate(8.930925925925942 56.888888888888886)"/><use xlink:href="#h" transform="matrix(1,0,0,1,999.4444444444443,25) translate(95.74574074074074 56.888888888888886)"/><path d="M644.44 100c0-44.18 35.82-80 80-80 44.2 0 80 35.82 80 80v580c0 44.18-35.8 80-80 80-44.18 0-80-35.82-80-80z" stroke="#3a414a" fill="#e3fae3"/><use xlink:href="#a" transform="matrix(1,0,0,1,649.4444444444445,25) translate(75.005 14.222222222222221)"/><use xlink:href="#i" transform="matrix(1,0,0,1,649.4444444444445,25) translate(30.585246913580253 35.55555555555556)"/><use xlink:href="#c" transform="matrix(1,0,0,1,649.4444444444445,25) translate(75.0296913580247 35.55555555555556)"/><use xlink:href="#g" transform="matrix(1,0,0,1,649.4444444444445,25) translate(2.9803086419753217 56.888888888888886)"/><use xlink:href="#j" transform="matrix(1,0,0,1,649.4444444444445,25) translate(89.79512345679012 56.888888888888886)"/><use xlink:href="#k" transform="matrix(1,0,0,1,649.4444444444445,25) translate(75 78.22222222222223)"/><path d="M788.9 333.33c0 35.6-28.86 64.45-64.46 64.45-35.6 0-64.44-28.85-64.44-64.45s28.85-64.44 64.44-64.44c35.6 0 64.45 28.84 64.45 64.43z" stroke="#3a414a" fill="#cfe4ff"/><use xlink:href="#l" transform="matrix(1,0,0,1,665,273.88888888888886) translate(38.548209876543204 51.24652777777778)"/><use xlink:href="#m" transform="matrix(1,0,0,1,665,273.88888888888886) translate(68.11611111111111 51.24652777777778)"/><use xlink:href="#n" transform="matrix(1,0,0,1,665,273.88888888888886) translate(16.94327160493827 77.91319444444446)"/><use xlink:href="#o" transform="matrix(1,0,0,1,665,273.88888888888886) translate(82.31364197530864 77.91319444444446)"/><path d="M788.9 558.9c0 35.58-28.86 64.43-64.46 64.43-35.6 0-64.44-28.85-64.44-64.44 0-35.6 28.85-64.46 64.44-64.46 35.6 0 64.45 28.86 64.45 64.45z" stroke="#3a414a" fill="#cfe4ff"/><use xlink:href="#l" transform="matrix(1,0,0,1,665,499.44444444444446) translate(38.548209876543204 51.24652777777778)"/><use xlink:href="#p" transform="matrix(1,0,0,1,665,499.44444444444446) translate(68.11611111111111 51.24652777777778)"/><use xlink:href="#n" transform="matrix(1,0,0,1,665,499.44444444444446) translate(16.94327160493827 77.91319444444446)"/><use xlink:href="#q" transform="matrix(1,0,0,1,665,499.44444444444446) translate(82.31364197530864 77.91319444444446)"/><path d="M1138.9 204.44c0 35.6-28.86 64.45-64.46 64.45-35.6 0-64.44-28.86-64.44-64.46 0-35.6 28.85-64.44 64.44-64.44 35.6 0 64.45 28.85 64.45 64.44z" stroke="#3a414a" fill="#cfe4ff"/><use xlink:href="#l" transform="matrix(1,0,0,1,1014.9999999999999,145) translate(38.54820987654321 36.37152777777778)"/><use xlink:href="#r" transform="matrix(1,0,0,1,1014.9999999999999,145) translate(68.11611111111111 36.37152777777778)"/><use xlink:href="#n" transform="matrix(1,0,0,1,1014.9999999999999,145) translate(16.320987654320987 63.03819444444445)"/><use xlink:href="#s" transform="matrix(1,0,0,1,1014.9999999999999,145) translate(81.69135802469135 63.03819444444445)"/><use xlink:href="#t" transform="matrix(1,0,0,1,1014.9999999999999,145) translate(22.498827160493825 89.70486111111111)"/><use xlink:href="#u" transform="matrix(1,0,0,1,1014.9999999999999,145) translate(75.52351851851853 89.70486111111111)"/><path d="M1138.9 430c0 35.6-28.86 64.44-64.46 64.44-35.6 0-64.44-28.85-64.44-64.44 0-35.6 28.85-64.44 64.44-64.44 35.6 0 64.45 28.85 64.45 64.44z" stroke="#3a414a" fill="#cfe4ff"/><use xlink:href="#l" transform="matrix(1,0,0,1,1014.9999999999999,370.55555555555554) translate(38.54820987654321 36.37152777777778)"/><use xlink:href="#v" transform="matrix(1,0,0,1,1014.9999999999999,370.55555555555554) translate(68.11611111111111 36.37152777777778)"/><use xlink:href="#n" transform="matrix(1,0,0,1,1014.9999999999999,370.55555555555554) translate(16.320987654320987 63.03819444444445)"/><use xlink:href="#w" transform="matrix(1,0,0,1,1014.9999999999999,370.55555555555554) translate(81.69135802469135 63.03819444444445)"/><use xlink:href="#t" transform="matrix(1,0,0,1,1014.9999999999999,370.55555555555554) translate(22.498827160493825 89.70486111111111)"/><use xlink:href="#x" transform="matrix(1,0,0,1,1014.9999999999999,370.55555555555554) translate(75.52351851851853 89.70486111111111)"/><path d="M1138.9 655.56c0 35.6-28.86 64.44-64.46 64.44-35.6 0-64.44-28.85-64.44-64.44 0-35.6 28.85-64.45 64.44-64.45 35.6 0 64.45 28.86 64.45 64.46z" stroke="#3a414a" fill="#cfe4ff"/><use xlink:href="#l" transform="matrix(1,0,0,1,1014.9999999999999,596.1111111111111) translate(38.54820987654321 36.37152777777778)"/><use xlink:href="#y" transform="matrix(1,0,0,1,1014.9999999999999,596.1111111111111) translate(68.11611111111111 36.37152777777778)"/><use xlink:href="#n" transform="matrix(1,0,0,1,1014.9999999999999,596.1111111111111) translate(16.320987654320987 63.03819444444445)"/><use xlink:href="#z" transform="matrix(1,0,0,1,1014.9999999999999,596.1111111111111) translate(81.69135802469135 63.03819444444445)"/><use xlink:href="#t" transform="matrix(1,0,0,1,1014.9999999999999,596.1111111111111) translate(22.498827160493825 89.70486111111111)"/><use xlink:href="#A" transform="matrix(1,0,0,1,1014.9999999999999,596.1111111111111) translate(75.52351851851853 89.70486111111111)"/><path d="M1488.9 424.44c0 35.6-28.86 64.45-64.46 64.45-35.6 0-64.44-28.86-64.44-64.46 0-35.6 28.85-64.44 64.44-64.44 35.6 0 64.45 28.85 64.45 64.44z" stroke="#3a414a" fill="#cfe4ff"/><use xlink:href="#l" transform="matrix(1,0,0,1,1365,365) translate(38.54820987654321 36.37152777777778)"/><use xlink:href="#B" transform="matrix(1,0,0,1,1365,365) translate(68.11611111111111 36.37152777777778)"/><use xlink:href="#n" transform="matrix(1,0,0,1,1365,365) translate(16.938271604938272 63.03819444444445)"/><use xlink:href="#C" transform="matrix(1,0,0,1,1365,365) translate(82.30864197530863 63.03819444444445)"/><use xlink:href="#t" transform="matrix(1,0,0,1,1365,365) translate(22.498827160493825 89.70486111111111)"/><use xlink:href="#D" transform="matrix(1,0,0,1,1365,365) translate(75.52351851851853 89.70486111111111)"/><path d="M889.1 276.24l-99.03 57.28-.5-.87 99.52-57.56zm114.73-66.37l-94 54.37v-1.15l93.5-54.1z" stroke="#3a414a" stroke-width=".05" fill="#3a414a"/><path d="M790.08 333.5l-.7.42v-1.16l.2-.12z" fill="#3a414a"/><path d="M790.12 333.52l-.78.45.02-.63v-.6l.23-.13zm-.7-.75v.57l-.03.54.65-.38-.48-.82z" stroke="#3a414a" stroke-width=".05" fill="#3a414a"/><path d="M1008.68 206.5l-7.35 13.06-7.65-13.22z" fill="#3a414a"/><path d="M1009.53 206l-8.2 14.57-8.52-14.74zm-8.2 12.55l6.5-11.57-13.28-.13z" stroke="#3a414a" stroke-width=".05" fill="#3a414a"/><use xlink:href="#E" transform="matrix(1,0,0,1,889.0882516604186,258.9974416445392) translate(0 14.222222222222223)"/><path d="M1004.6 414.13l-.36.94L959.12 398v-1.05zm-66.22-25.02v1.08l-148.7-56.2.35-.94z" stroke="#3a414a" stroke-width=".05" fill="#3a414a"/><path d="M1009.92 416.68l-14.77 2.58 5.4-14.28z" fill="#3a414a"/><path d="M1010.84 417.03l-16.47 2.87 6.02-15.92zm-14.92 1.6l13.1-2.3-8.3-10.36z" stroke="#3a414a" stroke-width=".05" fill="#3a414a"/><path d="M790.04 333.05l-.35.93-.33-.12.02-.52-.02-.54z" fill="#3a414a"/><path d="M790.08 333.03l-.37 1-.36-.15.02-.54v-.58zm-.67.3v.5l.28.12.33-.9-.6-.22z" stroke="#3a414a" stroke-width=".05" fill="#3a414a"/><use xlink:href="#F" transform="matrix(1,0,0,1,938.3755244992288,382.8940963764505) translate(0 14.222222222222223)"/><path d="M946.5 476.26L790.1 559.1l-.47-.9 156.9-83.07zm58.24-30.82l-37.48 19.84v-1.13l37-19.6z" stroke="#3a414a" stroke-width=".05" fill="#3a414a"/><path d="M790.08 559.1l-.7.37v-1.14l.23-.12z" fill="#3a414a"/><path d="M790.1 559.1l-.76.4.02-.6v-.6l.26-.13zm-.7-.76v1.08l.64-.34-.44-.84z" stroke="#3a414a" stroke-width=".05" fill="#3a414a"/><path d="M1009.7 442.24l-7.83 12.8-7.14-13.5z" fill="#3a414a"/><path d="M1010.58 441.78l-8.74 14.25-7.96-15.04zm-8.67 12.24l6.95-11.32-13.27-.63z" stroke="#3a414a" stroke-width=".05" fill="#3a414a"/><use xlink:href="#G" transform="matrix(1,0,0,1,946.5154909162533,459.53940285498146) translate(0 14.222222222222223)"/><path d="M1003.4 652.33l-.4.92-93.18-40.93v-1.1zm-114.33-50.2v1.08l-99.42-43.65.4-.92z" stroke="#3a414a" stroke-width=".05" fill="#3a414a"/><path d="M1008.6 655.16l-14.9 1.8 6.15-13.98z" fill="#3a414a"/><path d="M1009.5 655.56l-16.6 2 6.84-15.6zm-14.98.8l13.18-1.6-7.75-10.78z" stroke="#3a414a" stroke-width=".05" fill="#3a414a"/><path d="M790.06 558.64l-.4.9-.3-.1.03-.54-.02-.56z" fill="#3a414a"/><path d="M790.1 558.62l-.43.97-.33-.16.02-.54v-.6zm-.7.28v.5l.25.12.38-.87-.62-.27z" stroke="#3a414a" stroke-width=".05" fill="#3a414a"/><use xlink:href="#H" transform="matrix(1,0,0,1,889.0740741338797,596.5555555555555) translate(0 14.222222222222223)"/><path d="M790.08 558.75l-.83-.55L934 338.62h1.2zm218.35-331.23l-59.18 89.77h-1.2l59.54-90.33z" stroke="#3a414a" stroke-width=".05" fill="#3a414a"/><path d="M1010.52 237.3l-12.75-8.4 13.48-6.58z" fill="#3a414a"/><path d="M1010.98 238.2l-14.22-9.36 15.03-7.34zm-12.2-9.23l11.28 7.44.65-13.25z" stroke="#3a414a" stroke-width=".05" fill="#3a414a"/><path d="M790.1 558.74l-.75 1.1.04-.94-.02-.63z" fill="#3a414a"/><path d="M790.12 558.73l-.8 1.2.04-1.03v-.68zm-.7.17l-.04.87.67-1.03-.64-.42z" stroke="#3a414a" stroke-width=".05" fill="#3a414a"/><g><use xlink:href="#I" transform="matrix(1,0,0,1,931.2528212663213,317.28454092343554) translate(0 14.222222222222223)"/></g><path d="M1008.27 632.27l-.8.6-62.56-85.7h1.25zm-77.7-106.42h-1.24L789.28 334.03l.8-.6z" stroke="#3a414a" stroke-width=".05" fill="#3a414a"/><path d="M1011.34 637.32l-13.78-5.92 12.33-9z" fill="#3a414a"/><path d="M1011.92 638.1l-15.36-6.6 13.75-10.03zm-13.36-6.82l12.2 5.25-1.28-13.22z" stroke="#3a414a" stroke-width=".05" fill="#3a414a"/><path d="M790.1 333.45l-.74.54.03-.66-.02-.87z" fill="#3a414a"/><path d="M790.13 333.46l-.8.58.03-.7v-.94zm-.72-.12v.6l.66-.5-.65-.9z" stroke="#3a414a" stroke-width=".05" fill="#3a414a"/><g><use xlink:href="#J" transform="matrix(1,0,0,1,927.3678727794173,525.8482811028299) translate(0 14.222222222222223)"/></g><path d="M1356.1 406.76l-.68.73-78.54-73.58v-1.37zm-99.96-93.64v1.37L1139.4 205.14l.7-.73z" stroke="#3a414a" stroke-width=".05" fill="#3a414a"/><path d="M1140.1 204.43l-.68.73-.03-.7-.02-.7z" fill="#3a414a"/><path d="M1140.14 204.43l-.74.8-.04-.78v-.75zm-.73.02l.04.65.63-.67-.66-.62z" stroke="#3a414a" stroke-width=".05" fill="#3a414a"/><path d="M1360.06 411.15l-14.64-3.25 10.43-11.15z" fill="#3a414a"/><path d="M1360.78 411.82l-16.33-3.62 11.64-12.43zm-14.4-4.22l12.96 2.88-3.72-12.75z" stroke="#3a414a" stroke-width=".05" fill="#3a414a"/><g><use xlink:href="#K" transform="matrix(1,0,0,1,1256.1349159091953,312.85170228199894) translate(0 14.222222222222223)"/></g><path d="M1258.58 427.5l-118.68 3-.02-1 118.7-3zm94.06-2.38l-73.32 1.85v-1l73.3-1.85z" stroke="#3a414a" stroke-width=".05" fill="#3a414a"/><path d="M1139.9 430.5h-.53l.02-.5-.02-.5h.5z" fill="#3a414a"/><path d="M1139.94 430.5l-.6.03.02-.52v-.52l.55-.02zm-.53-.98v.96l.5-.02-.04-.95z" stroke="#3a414a" stroke-width=".05" fill="#3a414a"/><path d="M1358.52 424.47l-12.72 7.96-.38-15.27z" fill="#3a414a"/><path d="M1359.5 424.44l-14.17 8.88-.43-17.02zm-13.22 7.1l11.26-7.05-11.6-6.48z" stroke="#3a414a" stroke-width=".05" fill="#3a414a"/><g><use xlink:href="#L" transform="matrix(1,0,0,1,1258.5777402665794,416.0632872526907) translate(0 14.222222222222223)"/></g><path d="M1254.16 541.08h.4L1140.1 655.56l-.7-.7 114.76-114.78zm101.66-101.25l-80.92 80.92v-1h-.4l80.6-80.63z" stroke="#3a414a" stroke-width=".05" fill="#3a414a"/><path d="M1140.1 655.55l-.74.74.03-.74-.02-.7z" fill="#3a414a"/><path d="M1140.14 655.55l-.8.8.02-.8v-.75zm-.73 0v.68l.67-.68-.66-.64z" stroke="#3a414a" stroke-width=".05" fill="#3a414a"/><path d="M1355.9 449.84l-10.8-10.8 14.53-3.73z" fill="#3a414a"/><path d="M1356.17 450.8l-12.04-12.02 16.2-4.16zm-10.1-11.5l9.57 9.57 3.3-12.86z" stroke="#3a414a" stroke-width=".05" fill="#3a414a"/><g><use xlink:href="#M" transform="matrix(1,0,0,1,1254.159339402927,519.74809078679) translate(0 14.222222222222223)"/></g><path d="M1010.5 443.77h-3.18" stroke="#3a414a" fill="none"/><path d="M1011.12 444.27h-.62v-1h.4z" stroke="#3a414a" stroke-width=".05" fill="#3a414a"/><path d="M1007.33 443.77h-.5M725.25 19.52" stroke="#3a414a" fill="none"/><path stroke="#3a414a" stroke-width=".05" fill="#3a414a"/><path stroke="#3a414a" stroke-width=".05" fill="#3a414a"/><path d="M1069.34 19.68" stroke="#3a414a" fill="none"/><path stroke="#3a414a" stroke-width=".05" fill="#3a414a"/><path stroke="#3a414a" stroke-width=".05" fill="#3a414a"/><defs><path fill="#3a414a" d="M140-251c81 0 123 46 123 126C263-46 219 4 140 4 59 4 17-45 17-125s42-126 123-126zm0 227c63 0 89-41 89-101s-29-99-89-99c-61 0-89 39-89 99S79-25 140-24" id="N"/><path fill="#3a414a" d="M84 4C-5 8 30-112 23-190h32v120c0 31 7 50 39 49 72-2 45-101 50-169h31l1 190h-30c-1-10 1-25-2-33-11 22-28 36-60 37" id="O"/><path fill="#3a414a" d="M59-47c-2 24 18 29 38 22v24C64 9 27 4 27-40v-127H5v-23h24l9-43h21v43h35v23H59v120" id="P"/><path fill="#3a414a" d="M115-194c55 1 70 41 70 98S169 2 115 4C84 4 66-9 55-30l1 105H24l-1-265h31l2 30c10-21 28-34 59-34zm-8 174c40 0 45-34 45-75s-6-73-45-74c-42 0-51 32-51 76 0 43 10 73 51 73" id="Q"/><g id="b"><use transform="matrix(0.049382716049382706,0,0,0.049382716049382706,0,0)" xlink:href="#N"/><use transform="matrix(0.049382716049382706,0,0,0.049382716049382706,13.827160493827158,0)" xlink:href="#O"/><use transform="matrix(0.049382716049382706,0,0,0.049382716049382706,23.7037037037037,0)" xlink:href="#P"/><use transform="matrix(0.049382716049382706,0,0,0.049382716049382706,28.64197530864197,0)" xlink:href="#Q"/><use transform="matrix(0.049382716049382706,0,0,0.049382716049382706,38.518518518518505,0)" xlink:href="#O"/><use transform="matrix(0.049382716049382706,0,0,0.049382716049382706,48.39506172839505,0)" xlink:href="#P"/></g><path fill="#3a414a" d="M30 0v-248h33v221h125V0H30" id="R"/><path fill="#3a414a" d="M141-36C126-15 110 5 73 4 37 3 15-17 15-53c-1-64 63-63 125-63 3-35-9-54-41-54-24 1-41 7-42 31l-33-3c5-37 33-52 76-52 45 0 72 20 72 64v82c-1 20 7 32 28 27v20c-31 9-61-2-59-35zM48-53c0 20 12 33 32 33 41-3 63-29 60-74-43 2-92-5-92 41" id="S"/><path fill="#3a414a" d="M179-190L93 31C79 59 56 82 12 73V49c39 6 53-20 64-50L1-190h34L92-34l54-156h33" id="T"/><path fill="#3a414a" d="M100-194c63 0 86 42 84 106H49c0 40 14 67 53 68 26 1 43-12 49-29l28 8c-11 28-37 45-77 45C44 4 14-33 15-96c1-61 26-98 85-98zm52 81c6-60-76-77-97-28-3 7-6 17-6 28h103" id="U"/><path fill="#3a414a" d="M114-163C36-179 61-72 57 0H25l-1-190h30c1 12-1 29 2 39 6-27 23-49 58-41v29" id="V"/><g id="c"><use transform="matrix(0.049382716049382706,0,0,0.049382716049382706,0,0)" xlink:href="#R"/><use transform="matrix(0.049382716049382706,0,0,0.049382716049382706,9.87654320987654,0)" xlink:href="#S"/><use transform="matrix(0.049382716049382706,0,0,0.049382716049382706,19.75308641975308,0)" xlink:href="#T"/><use transform="matrix(0.049382716049382706,0,0,0.049382716049382706,28.64197530864197,0)" xlink:href="#U"/><use transform="matrix(0.049382716049382706,0,0,0.049382716049382706,38.518518518518505,0)" xlink:href="#V"/></g><path fill="#3a414a" d="M205 0l-28-72H64L36 0H1l101-248h38L239 0h-34zm-38-99l-47-123c-12 45-31 82-46 123h93" id="W"/><path fill="#3a414a" d="M96-169c-40 0-48 33-48 73s9 75 48 75c24 0 41-14 43-38l32 2c-6 37-31 61-74 61-59 0-76-41-82-99-10-93 101-131 147-64 4 7 5 14 7 22l-32 3c-4-21-16-35-41-35" id="X"/><path fill="#3a414a" d="M24-231v-30h32v30H24zM24 0v-190h32V0H24" id="Y"/><path fill="#3a414a" d="M108 0H70L1-190h34L89-25l56-165h34" id="Z"/><path fill="#3a414a" d="M100-194c62-1 85 37 85 99 1 63-27 99-86 99S16-35 15-95c0-66 28-99 85-99zM99-20c44 1 53-31 53-75 0-43-8-75-51-75s-53 32-53 75 10 74 51 75" id="aa"/><path fill="#3a414a" d="M117-194c89-4 53 116 60 194h-32v-121c0-31-8-49-39-48C34-167 62-67 57 0H25l-1-190h30c1 10-1 24 2 32 11-22 29-35 61-36" id="ab"/><path fill="#3a414a" d="M33-154v-36h34v36H33zM33 0v-36h34V0H33" id="ac"/><g id="d"><use transform="matrix(0.049382716049382706,0,0,0.049382716049382706,0,0)" xlink:href="#W"/><use transform="matrix(0.049382716049382706,0,0,0.049382716049382706,11.85185185185185,0)" xlink:href="#X"/><use transform="matrix(0.049382716049382706,0,0,0.049382716049382706,20.740740740740737,0)" xlink:href="#P"/><use transform="matrix(0.049382716049382706,0,0,0.049382716049382706,25.679012345679006,0)" xlink:href="#Y"/><use transform="matrix(0.049382716049382706,0,0,0.049382716049382706,29.58024691358024,0)" xlink:href="#Z"/><use transform="matrix(0.049382716049382706,0,0,0.049382716049382706,38.469135802469125,0)" xlink:href="#S"/><use transform="matrix(0.049382716049382706,0,0,0.049382716049382706,48.34567901234567,0)" xlink:href="#P"/><use transform="matrix(0.049382716049382706,0,0,0.049382716049382706,53.28395061728394,0)" xlink:href="#Y"/><use transform="matrix(0.049382716049382706,0,0,0.049382716049382706,57.185185185185176,0)" xlink:href="#aa"/><use transform="matrix(0.049382716049382706,0,0,0.049382716049382706,67.06172839506172,0)" xlink:href="#ab"/><use transform="matrix(0.049382716049382706,0,0,0.049382716049382706,76.93827160493827,0)" xlink:href="#ac"/></g><path fill="#3a414a" d="M135-143c-3-34-86-38-87 0 15 53 115 12 119 90S17 21 10-45l28-5c4 36 97 45 98 0-10-56-113-15-118-90-4-57 82-63 122-42 12 7 21 19 24 35" id="ad"/><path fill="#3a414a" d="M177-190C167-65 218 103 67 71c-23-6-38-20-44-43l32-5c15 47 100 32 89-28v-30C133-14 115 1 83 1 29 1 15-40 15-95c0-56 16-97 71-98 29-1 48 16 59 35 1-10 0-23 2-32h30zM94-22c36 0 50-32 50-73 0-42-14-75-50-75-39 0-46 34-46 75s6 73 46 73" id="ae"/><path fill="#3a414a" d="M210-169c-67 3-38 105-44 169h-31v-121c0-29-5-50-35-48C34-165 62-65 56 0H25l-1-190h30c1 10-1 24 2 32 10-44 99-50 107 0 11-21 27-35 58-36 85-2 47 119 55 194h-31v-121c0-29-5-49-35-48" id="af"/><path fill="#3a414a" d="M85-194c31 0 48 13 60 33l-1-100h32l1 261h-30c-2-10 0-23-3-31C134-8 116 4 85 4 32 4 16-35 15-94c0-66 23-100 70-100zm9 24c-40 0-46 34-46 75 0 40 6 74 45 74 42 0 51-32 51-76 0-42-9-74-50-73" id="ag"/><g id="e"><use transform="matrix(0.049382716049382706,0,0,0.049382716049382706,0,0)" xlink:href="#ad"/><use transform="matrix(0.049382716049382706,0,0,0.049382716049382706,8.888888888888888,0)" xlink:href="#Y"/><use transform="matrix(0.049382716049382706,0,0,0.049382716049382706,12.790123456790122,0)" xlink:href="#ae"/><use transform="matrix(0.049382716049382706,0,0,0.049382716049382706,22.666666666666664,0)" xlink:href="#af"/><use transform="matrix(0.049382716049382706,0,0,0.049382716049382706,37.432098765432094,0)" xlink:href="#aa"/><use transform="matrix(0.049382716049382706,0,0,0.049382716049382706,47.30864197530863,0)" xlink:href="#Y"/><use transform="matrix(0.049382716049382706,0,0,0.049382716049382706,51.209876543209866,0)" xlink:href="#ag"/></g><path fill="#3a414a" d="M197 0v-115H63V0H30v-248h33v105h134v-105h34V0h-34" id="ah"/><g id="f"><use transform="matrix(0.049382716049382706,0,0,0.049382716049382706,0,0)" xlink:href="#ah"/><use transform="matrix(0.049382716049382706,0,0,0.049382716049382706,12.790123456790122,0)" xlink:href="#Y"/><use transform="matrix(0.049382716049382706,0,0,0.049382716049382706,16.691358024691354,0)" xlink:href="#ag"/><use transform="matrix(0.049382716049382706,0,0,0.049382716049382706,26.567901234567895,0)" xlink:href="#ag"/><use transform="matrix(0.049382716049382706,0,0,0.049382716049382706,36.444444444444436,0)" xlink:href="#U"/><use transform="matrix(0.049382716049382706,0,0,0.049382716049382706,46.32098765432097,0)" xlink:href="#ab"/></g><g id="g"><use transform="matrix(0.049382716049382706,0,0,0.049382716049382706,0,0)" xlink:href="#W"/><use transform="matrix(0.049382716049382706,0,0,0.049382716049382706,11.85185185185185,0)" xlink:href="#X"/><use transform="matrix(0.049382716049382706,0,0,0.049382716049382706,20.740740740740737,0)" xlink:href="#P"/><use transform="matrix(0.049382716049382706,0,0,0.049382716049382706,25.679012345679006,0)" xlink:href="#Y"/><use transform="matrix(0.049382716049382706,0,0,0.049382716049382706,29.58024691358024,0)" xlink:href="#Z"/><use transform="matrix(0.049382716049382706,0,0,0.049382716049382706,38.469135802469125,0)" xlink:href="#S"/><use transform="matrix(0.049382716049382706,0,0,0.049382716049382706,48.34567901234567,0)" xlink:href="#P"/><use transform="matrix(0.049382716049382706,0,0,0.049382716049382706,53.28395061728394,0)" xlink:href="#Y"/><use transform="matrix(0.049382716049382706,0,0,0.049382716049382706,57.185185185185176,0)" xlink:href="#aa"/><use transform="matrix(0.049382716049382706,0,0,0.049382716049382706,67.06172839506172,0)" xlink:href="#ab"/><use transform="matrix(0.049382716049382706,0,0,0.049382716049382706,76.93827160493827,0)" xlink:href="#ac"/></g><path fill="#3a414a" d="M233-177c-1 41-23 64-60 70L243 0h-38l-65-103H63V0H30v-248c88 3 205-21 203 71zM63-129c60-2 137 13 137-47 0-61-80-42-137-45v92" id="ai"/><path fill="#3a414a" d="M232-93c-1 65-40 97-104 97C67 4 28-28 28-90v-158h33c8 89-33 224 67 224 102 0 64-133 71-224h33v155" id="aj"/><g id="h"><use transform="matrix(0.049382716049382706,0,0,0.049382716049382706,0,0)" xlink:href="#ai"/><use transform="matrix(0.049382716049382706,0,0,0.049382716049382706,12.790123456790122,0)" xlink:href="#U"/><use transform="matrix(0.049382716049382706,0,0,0.049382716049382706,22.666666666666664,0)" xlink:href="#R"/><use transform="matrix(0.049382716049382706,0,0,0.049382716049382706,32.5432098765432,0)" xlink:href="#aj"/></g><path fill="#3a414a" d="M33 0v-248h34V0H33" id="ak"/><g id="i"><use transform="matrix(0.049382716049382706,0,0,0.049382716049382706,0,0)" xlink:href="#ak"/><use transform="matrix(0.049382716049382706,0,0,0.049382716049382706,4.93827160493827,0)" xlink:href="#ab"/><use transform="matrix(0.049382716049382706,0,0,0.049382716049382706,14.814814814814811,0)" xlink:href="#Q"/><use transform="matrix(0.049382716049382706,0,0,0.049382716049382706,24.691358024691354,0)" xlink:href="#O"/><use transform="matrix(0.049382716049382706,0,0,0.049382716049382706,34.5679012345679,0)" xlink:href="#P"/></g><g id="j"><use transform="matrix(0.049382716049382706,0,0,0.049382716049382706,0,0)" xlink:href="#ak"/><use transform="matrix(0.049382716049382706,0,0,0.049382716049382706,4.93827160493827,0)" xlink:href="#ag"/><use transform="matrix(0.049382716049382706,0,0,0.049382716049382706,14.814814814814811,0)" xlink:href="#U"/><use transform="matrix(0.049382716049382706,0,0,0.049382716049382706,24.691358024691354,0)" xlink:href="#ab"/><use transform="matrix(0.049382716049382706,0,0,0.049382716049382706,34.5679012345679,0)" xlink:href="#P"/><use transform="matrix(0.049382716049382706,0,0,0.049382716049382706,39.50617283950617,0)" xlink:href="#Y"/><use transform="matrix(0.049382716049382706,0,0,0.049382716049382706,43.407407407407405,0)" xlink:href="#P"/><use transform="matrix(0.049382716049382706,0,0,0.049382716049382706,48.34567901234568,0)" xlink:href="#T"/></g><g id="l"><use transform="matrix(0.06172839506172839,0,0,0.06172839506172839,0,0)" xlink:href="#Y"/><use transform="matrix(0.06172839506172839,0,0,0.06172839506172839,4.876543209876543,0)" xlink:href="#ag"/><use transform="matrix(0.06172839506172839,0,0,0.06172839506172839,17.22222222222222,0)" xlink:href="#ac"/></g><path fill="#3a414a" d="M27 0v-27h64v-190l-56 39v-29l58-41h29v221h61V0H27" id="al"/><use transform="matrix(0.06172839506172839,0,0,0.06172839506172839,0,0)" xlink:href="#al" id="m"/><path fill="#3a414a" d="M24 0v-261h32V0H24" id="am"/><g id="n"><use transform="matrix(0.06172839506172839,0,0,0.06172839506172839,0,0)" xlink:href="#Z"/><use transform="matrix(0.06172839506172839,0,0,0.06172839506172839,11.11111111111111,0)" xlink:href="#S"/><use transform="matrix(0.06172839506172839,0,0,0.06172839506172839,23.45679012345679,0)" xlink:href="#am"/><use transform="matrix(0.06172839506172839,0,0,0.06172839506172839,28.333333333333336,0)" xlink:href="#O"/><use transform="matrix(0.06172839506172839,0,0,0.06172839506172839,40.67901234567901,0)" xlink:href="#U"/><use transform="matrix(0.06172839506172839,0,0,0.06172839506172839,53.02469135802469,0)" xlink:href="#ac"/></g><path fill="#3a414a" d="M141 0L90-78 38 0H4l68-98-65-92h35l48 74 47-74h35l-64 92 68 98h-35" id="an"/><g id="o"><use transform="matrix(0.06172839506172839,0,0,0.06172839506172839,0,0)" xlink:href="#an"/><use transform="matrix(0.043209876543209874,0,0,0.043209876543209874,11.11111111111111,3.1111111111111107)" xlink:href="#al"/></g><path fill="#3a414a" d="M101-251c82-7 93 87 43 132L82-64C71-53 59-42 53-27h129V0H18c2-99 128-94 128-182 0-28-16-43-45-43s-46 15-49 41l-32-3c6-41 34-60 81-64" id="ao"/><use transform="matrix(0.06172839506172839,0,0,0.06172839506172839,0,0)" xlink:href="#ao" id="p"/><g id="q"><use transform="matrix(0.06172839506172839,0,0,0.06172839506172839,0,0)" xlink:href="#an"/><use transform="matrix(0.043209876543209874,0,0,0.043209876543209874,11.11111111111111,3.1111111111111107)" xlink:href="#ao"/></g><path fill="#3a414a" d="M126-127c33 6 58 20 58 59 0 88-139 92-164 29-3-8-5-16-6-25l32-3c6 27 21 44 54 44 32 0 52-15 52-46 0-38-36-46-79-43v-28c39 1 72-4 72-42 0-27-17-43-46-43-28 0-47 15-49 41l-32-3c6-42 35-63 81-64 48-1 79 21 79 65 0 36-21 52-52 59" id="ap"/><use transform="matrix(0.06172839506172839,0,0,0.06172839506172839,0,0)" xlink:href="#ap" id="r"/><path fill="#3a414a" d="M106-169C34-169 62-67 57 0H25v-261h32l-1 103c12-21 28-36 61-36 89 0 53 116 60 194h-32v-121c2-32-8-49-39-48" id="aq"/><g id="s"><use transform="matrix(0.06172839506172839,0,0,0.06172839506172839,0,0)" xlink:href="#aq"/><use transform="matrix(0.043209876543209874,0,0,0.043209876543209874,12.345679012345679,3.1111111111111107)" xlink:href="#al"/></g><path fill="#3a414a" d="M115-194c53 0 69 39 70 98 0 66-23 100-70 100C84 3 66-7 56-30L54 0H23l1-261h32v101c10-23 28-34 59-34zm-8 174c40 0 45-34 45-75 0-40-5-75-45-74-42 0-51 32-51 76 0 43 10 73 51 73" id="ar"/><g id="t"><use transform="matrix(0.06172839506172839,0,0,0.06172839506172839,0,0)" xlink:href="#ar"/><use transform="matrix(0.06172839506172839,0,0,0.06172839506172839,12.345679012345679,0)" xlink:href="#Y"/><use transform="matrix(0.06172839506172839,0,0,0.06172839506172839,17.22222222222222,0)" xlink:href="#S"/><use transform="matrix(0.06172839506172839,0,0,0.06172839506172839,29.5679012345679,0)" xlink:href="#ad"/><use transform="matrix(0.06172839506172839,0,0,0.06172839506172839,40.67901234567901,0)" xlink:href="#ac"/></g><g id="u"><use transform="matrix(0.06172839506172839,0,0,0.06172839506172839,0,0)" xlink:href="#ar"/><use transform="matrix(0.043209876543209874,0,0,0.043209876543209874,12.345679012345679,3.1111111111111107)" xlink:href="#al"/></g><path fill="#3a414a" d="M155-56V0h-30v-56H8v-25l114-167h33v167h35v25h-35zm-30-156c-27 46-58 90-88 131h88v-131" id="as"/><use transform="matrix(0.06172839506172839,0,0,0.06172839506172839,0,0)" xlink:href="#as" id="v"/><g id="w"><use transform="matrix(0.06172839506172839,0,0,0.06172839506172839,0,0)" xlink:href="#aq"/><use transform="matrix(0.043209876543209874,0,0,0.043209876543209874,12.345679012345679,3.1111111111111107)" xlink:href="#ao"/></g><g id="x"><use transform="matrix(0.06172839506172839,0,0,0.06172839506172839,0,0)" xlink:href="#ar"/><use transform="matrix(0.043209876543209874,0,0,0.043209876543209874,12.345679012345679,3.1111111111111107)" xlink:href="#ao"/></g><path fill="#3a414a" d="M54-142c48-35 137-8 131 61C196 18 31 33 14-55l32-4c7 23 22 37 52 37 35-1 51-22 54-58 4-55-73-65-99-34H22l8-134h141v27H59" id="at"/><use transform="matrix(0.06172839506172839,0,0,0.06172839506172839,0,0)" xlink:href="#at" id="y"/><g id="z"><use transform="matrix(0.06172839506172839,0,0,0.06172839506172839,0,0)" xlink:href="#aq"/><use transform="matrix(0.043209876543209874,0,0,0.043209876543209874,12.345679012345679,3.1111111111111107)" xlink:href="#ap"/></g><g id="A"><use transform="matrix(0.06172839506172839,0,0,0.06172839506172839,0,0)" xlink:href="#ar"/><use transform="matrix(0.043209876543209874,0,0,0.043209876543209874,12.345679012345679,3.1111111111111107)" xlink:href="#ap"/></g><path fill="#3a414a" d="M110-160c48 1 74 30 74 79 0 53-28 85-80 85-65 0-83-55-86-122-5-90 50-162 133-122 14 7 22 21 27 39l-31 6c-5-40-67-38-82-6-9 19-15 44-15 74 11-20 30-34 60-33zm-7 138c34 0 49-23 49-58s-16-56-50-56c-29 0-50 16-49 49 1 36 15 65 50 65" id="au"/><use transform="matrix(0.06172839506172839,0,0,0.06172839506172839,0,0)" xlink:href="#au" id="B"/><g id="C"><use transform="matrix(0.06172839506172839,0,0,0.06172839506172839,0,0)" xlink:href="#T"/><use transform="matrix(0.043209876543209874,0,0,0.043209876543209874,11.11111111111111,3.1111111111111107)" xlink:href="#al"/></g><g id="D"><use transform="matrix(0.06172839506172839,0,0,0.06172839506172839,0,0)" xlink:href="#ar"/><use transform="matrix(0.043209876543209874,0,0,0.043209876543209874,12.345679012345679,3.1111111111111107)" xlink:href="#as"/></g><path fill="#333" d="M231 0h-52l-39-155L100 0H48L-1-190h46L77-45c9-52 24-97 36-145h53l37 145 32-145h46" id="av"/><path fill="#333" d="M23 0v-37h61v-169l-59 37v-38l62-41h46v211h57V0H23" id="aw"/><g id="E"><use transform="matrix(0.04938271604938272,0,0,0.04938271604938272,0,0)" xlink:href="#av"/><use transform="matrix(0.034567901234567905,0,0,0.034567901234567905,13.827160493827162,2.488888888888889)" xlink:href="#aw"/></g><path fill="#333" d="M182-182c0 78-84 86-111 141h115V0H12c-6-101 99-100 120-180 1-22-12-31-33-32-23 0-32 14-35 34l-49-3c5-45 32-70 84-70 51 0 83 22 83 69" id="ax"/><g id="F"><use transform="matrix(0.04938271604938272,0,0,0.04938271604938272,0,0)" xlink:href="#av"/><use transform="matrix(0.034567901234567905,0,0,0.034567901234567905,13.827160493827162,2.488888888888889)" xlink:href="#ax"/></g><path fill="#333" d="M139-81c0-46-55-55-73-27H18l9-140h149v37H72l-4 63c44-38 133-4 122 66C201 21 21 35 11-62l49-4c5 18 15 30 39 30 26 0 40-18 40-45" id="ay"/><g id="G"><use transform="matrix(0.04938271604938272,0,0,0.04938271604938272,0,0)" xlink:href="#av"/><use transform="matrix(0.034567901234567905,0,0,0.034567901234567905,13.827160493827162,2.488888888888889)" xlink:href="#ay"/></g><path fill="#333" d="M115-159c48 0 72 30 72 78 0 54-30 85-83 85-64 0-91-50-91-122 0-98 58-163 141-120 15 8 21 24 27 44l-47 6c-5-31-48-31-61-4-7 14-11 33-11 60 9-17 28-27 53-27zM102-35c24 0 36-20 36-45s-11-43-37-43c-23 0-36 14-36 38 0 27 11 50 37 50" id="az"/><g id="H"><use transform="matrix(0.04938271604938272,0,0,0.04938271604938272,0,0)" xlink:href="#av"/><use transform="matrix(0.034567901234567905,0,0,0.034567901234567905,13.827160493827162,2.488888888888889)" xlink:href="#az"/></g><path fill="#333" d="M165-50V0h-47v-50H5v-38l105-160h55v161h33v37h-33zm-47-37l2-116L46-87h72" id="aA"/><g id="I"><use transform="matrix(0.04938271604938272,0,0,0.04938271604938272,0,0)" xlink:href="#av"/><use transform="matrix(0.034567901234567905,0,0,0.034567901234567905,13.827160493827162,2.488888888888889)" xlink:href="#aA"/></g><path fill="#333" d="M128-127c34 4 56 21 59 58 7 91-148 94-172 28-4-9-6-17-7-26l51-5c1 24 16 35 40 36 23 0 39-12 38-36-1-31-31-36-65-34v-40c32 2 59-3 59-33 0-20-13-33-34-33s-33 13-35 32l-50-3c6-44 37-68 86-68 50 0 83 20 83 66 0 35-22 52-53 58" id="aB"/><g id="J"><use transform="matrix(0.04938271604938272,0,0,0.04938271604938272,0,0)" xlink:href="#av"/><use transform="matrix(0.034567901234567905,0,0,0.034567901234567905,13.827160493827162,2.488888888888889)" xlink:href="#aB"/></g><path fill="#333" d="M52 0c1-96 47-148 87-207H15v-41h169v40c-36 62-79 113-81 208H52" id="aC"/><g id="K"><use transform="matrix(0.04938271604938272,0,0,0.04938271604938272,0,0)" xlink:href="#av"/><use transform="matrix(0.034567901234567905,0,0,0.034567901234567905,13.827160493827162,2.488888888888889)" xlink:href="#aC"/></g><path fill="#333" d="M138-131c27 9 52 24 51 61 0 53-36 74-89 74S11-19 11-69c0-35 22-54 51-61-78-25-46-121 38-121 51 0 83 19 83 66 0 30-18 49-45 54zm-38-16c24 0 32-13 32-36 1-23-11-34-32-34-22 0-33 12-32 34 0 22 9 36 32 36zm1 116c27 0 37-17 37-43 0-25-13-39-39-39-24 0-37 15-37 40 0 27 11 42 39 42" id="aD"/><g id="L"><use transform="matrix(0.04938271604938272,0,0,0.04938271604938272,0,0)" xlink:href="#av"/><use transform="matrix(0.034567901234567905,0,0,0.034567901234567905,13.827160493827162,2.488888888888889)" xlink:href="#aD"/></g><path fill="#333" d="M99-251c69 0 84 53 88 123 5 99-61 162-144 118-15-8-21-25-26-45l46-6c4 31 50 33 63 7 7-15 12-36 12-60-9 18-29 28-54 28-48 0-72-32-72-82 0-55 31-83 87-83zm-1 128c24 0 37-16 37-39 0-27-10-51-37-51-25 0-35 19-35 45 0 25 10 45 35 45" id="aE"/><g id="M"><use transform="matrix(0.04938271604938272,0,0,0.04938271604938272,0,0)" xlink:href="#av"/><use transform="matrix(0.034567901234567905,0,0,0.034567901234567905,13.827160493827162,2.488888888888889)" xlink:href="#aE"/></g></defs></g></svg>